<svg width="111" height="73" viewBox="0 0 111 73" fill="none" xmlns="http://www.w3.org/2000/svg">
<path d="M63.32 49.1836H54.696C50.9972 49.1836 48.0012 54.036 48.0012 60.0224C48.0012 66.0088 50.9972 70.8612 54.696 70.8612H63.32C67.0188 70.8612 70.0176 66.0088 70.0176 60.0224C70.0176 54.036 67.0132 49.1836 63.32 49.1836Z" fill="#17A07A"/>
<path opacity="0.2" d="M63.32 49.1836H54.696C50.9972 49.1836 48.0012 54.036 48.0012 60.0224C48.0012 66.0088 50.9972 70.8612 54.696 70.8612H63.32C67.0188 70.8612 70.0176 66.0088 70.0176 60.0224C70.0176 54.036 67.0132 49.1836 63.32 49.1836Z" fill="black"/>
<path d="M24.3832 49.1836H15.7592C12.0604 49.1836 9.06439 54.036 9.06439 60.0224C9.06439 66.0088 12.0604 70.8612 15.7592 70.8612H24.3832C28.082 70.8612 31.0808 66.0088 31.0808 60.0224C31.0808 54.036 28.082 49.1836 24.3832 49.1836Z" fill="#17A07A"/>
<path opacity="0.2" d="M24.3832 49.1836H15.7592C12.0604 49.1836 9.06439 54.036 9.06439 60.0224C9.06439 66.0088 12.0604 70.8612 15.7592 70.8612H24.3832C28.082 70.8612 31.0808 66.0088 31.0808 60.0224C31.0808 54.036 28.082 49.1836 24.3832 49.1836Z" fill="black"/>
<path d="M106.695 40.96L108.655 42.64C109.111 43.0317 109.451 43.5415 109.636 44.1134C109.822 44.6853 109.847 45.2973 109.708 45.8824L109.26 47.7724L106.695 40.96Z" fill="#17A07A"/>
<path d="M110.259 51.9556C109.92 48.2581 108.952 44.6455 107.398 41.2736L106.72 39.8204H90.3988L98.8632 64.1804C101.841 63.4367 104.6 61.9973 106.913 59.9804L107.109 59.8124C108.218 58.8454 109.082 57.6289 109.63 56.2631C110.177 54.8973 110.393 53.421 110.259 51.9556Z" fill="#17A07A"/>
<path opacity="0.4" d="M110.259 51.9556C109.92 48.2581 108.952 44.6455 107.398 41.2736L106.72 39.8204H90.3988L98.8632 64.1804C101.841 63.4367 104.6 61.9973 106.913 59.9804L107.109 59.8124C108.218 58.8454 109.082 57.6289 109.63 56.2631C110.177 54.8973 110.393 53.421 110.259 51.9556Z" fill="white"/>
<path d="M88.5872 70.8612C84.8884 70.8612 81.8896 66.0088 81.8896 60.0224C81.8896 54.036 84.8884 49.1836 88.5872 49.1836H97.1804V70.8612H88.5872Z" fill="#17A07A"/>
<path d="M97.2112 70.8612C100.91 70.8612 103.909 66.0085 103.909 60.0224C103.909 54.0363 100.91 49.1836 97.2112 49.1836C93.5122 49.1836 90.5136 54.0363 90.5136 60.0224C90.5136 66.0085 93.5122 70.8612 97.2112 70.8612Z" fill="#17A07A"/>
<path opacity="0.2" d="M97.2112 66.8768C99.8061 66.8768 101.91 63.8079 101.91 60.0224C101.91 56.2368 99.8061 53.168 97.2112 53.168C94.6164 53.168 92.5128 56.2368 92.5128 60.0224C92.5128 63.8079 94.6164 66.8768 97.2112 66.8768Z" fill="black"/>
<path d="M39.6992 64.1804L23.5936 38.3336C23.5936 38.3336 36.3364 25.4536 64.1684 25.4536C88.2652 25.4536 102.696 33.4112 106.728 39.8232L97.1804 49.1864C87.9404 49.1864 87.9908 58.9864 86.7224 63.1164C86.6262 63.4274 86.4323 63.699 86.1695 63.8912C85.9068 64.0833 85.5891 64.1857 85.2636 64.1832H39.6992" fill="#17A07A"/>
<path opacity="0.4" d="M39.6992 64.1804L23.5936 38.3336C23.5936 38.3336 36.3364 25.4536 64.1684 25.4536C88.2652 25.4536 102.696 33.4112 106.728 39.8232L97.1804 49.1864C87.9404 49.1864 87.9908 58.9864 86.7224 63.1164C86.6262 63.4274 86.4323 63.699 86.1695 63.8912C85.9068 64.0833 85.5891 64.1857 85.2636 64.1832H39.6992" fill="white"/>
<path d="M49.656 70.8612C45.9572 70.8612 42.9584 66.0088 42.9584 60.0224C42.9584 54.036 45.96 49.1836 49.656 49.1836H58.2492V70.8612H49.656Z" fill="#17A07A"/>
<path d="M58.28 70.8612C61.979 70.8612 64.9776 66.0085 64.9776 60.0224C64.9776 54.0363 61.979 49.1836 58.28 49.1836C54.581 49.1836 51.5824 54.0363 51.5824 60.0224C51.5824 66.0085 54.581 70.8612 58.28 70.8612Z" fill="#17A07A"/>
<path opacity="0.2" d="M58.28 66.8768C60.8749 66.8768 62.9784 63.8079 62.9784 60.0224C62.9784 56.2368 60.8749 53.168 58.28 53.168C55.6851 53.168 53.5816 56.2368 53.5816 60.0224C53.5816 63.8079 55.6851 66.8768 58.28 66.8768Z" fill="black"/>
<path d="M46.4892 62.0468C47.3096 57.2028 52.1396 49.1836 58.2492 49.1836L64.16 38.3336H23.5936C21.0064 38.3336 8.9104 42.7044 4.506 47.1088C1.426 50.1888 1.104 53.294 0.740001 61.19C0.667201 62.8 2.1484 64.2 3.9292 64.2C18.898 64.2 37.014 64.2588 43.608 64.2784C45.064 64.27 46.2708 63.3432 46.4892 62.0468Z" fill="#17A07A"/>
<path opacity="0.41" d="M46.4892 62.0468C47.3096 57.2028 52.1396 49.1836 58.2492 49.1836L64.16 38.3336H23.5936C21.0064 38.3336 8.9104 42.7044 4.506 47.1088C1.426 50.1888 1.104 53.294 0.740001 61.19C0.667201 62.8 2.1484 64.2 3.9292 64.2C18.898 64.2 37.014 64.2588 43.608 64.2784C45.064 64.27 46.2708 63.3432 46.4892 62.0468Z" fill="white"/>
<path d="M64.16 25.4508C36.4988 25.4508 23.8764 38.1348 23.5908 38.3308H51.574C51.574 38.3308 63.614 27.9288 71.5856 25.714C69.228 25.5423 66.7528 25.4545 64.16 25.4508Z" fill="#17A07A"/>
<path d="M29.5576 49.4048C33.3964 47.9488 44.9912 43.8636 48.1524 44.9248C51.3136 45.986 43.6584 49.7772 41.7292 50.2812C39.8 50.7852 38.5372 49.7744 35.6504 51.1716C32.7636 52.5688 24.9068 51.1632 29.5576 49.4048Z" fill="#17A07A"/>
<path opacity="0.2" d="M77.1128 64.326C77.083 64.3259 77.0538 64.3171 77.0288 64.3008C76.9968 64.2787 76.9747 64.2448 76.9674 64.2066C76.96 64.1684 76.968 64.1288 76.9896 64.0964C77.0484 64.0124 82.7212 55.4696 82.7212 38.3364C82.7212 38.297 82.7368 38.2593 82.7647 38.2314C82.7925 38.2036 82.8303 38.188 82.8696 38.188C82.889 38.188 82.9081 38.1918 82.926 38.1993C82.9438 38.2068 82.96 38.2178 82.9736 38.2316C82.9871 38.2454 82.9978 38.2618 83.0049 38.2798C83.0121 38.2978 83.0156 38.317 83.0152 38.3364C83.0152 55.5732 77.292 64.1804 77.2332 64.2644C77.2198 64.2838 77.2018 64.2996 77.1808 64.3103C77.1598 64.3211 77.1364 64.3265 77.1128 64.326Z" fill="#17A07A"/>
<path opacity="0.2" d="M15.6472 51.1016H15.6164L7.90799 49.3264C7.88711 49.3246 7.86687 49.3183 7.84865 49.308C7.83042 49.2977 7.81465 49.2835 7.80239 49.2665C7.79014 49.2495 7.7817 49.2301 7.77765 49.2095C7.7736 49.189 7.77403 49.1678 7.77892 49.1474C7.78381 49.127 7.79304 49.1079 7.80598 49.0915C7.81892 49.075 7.83527 49.0615 7.8539 49.0519C7.87254 49.0423 7.89302 49.0369 7.91395 49.0359C7.93488 49.035 7.95577 49.0386 7.97519 49.0464L15.6556 50.8104L28.3592 49.36C28.3799 49.352 28.4022 49.3488 28.4243 49.3506C28.4464 49.3525 28.4678 49.3594 28.4869 49.3708C28.5059 49.3822 28.5221 49.3979 28.5342 49.4165C28.5463 49.4352 28.5539 49.4563 28.5566 49.4784C28.5592 49.5004 28.5568 49.5228 28.5495 49.5437C28.5421 49.5647 28.5301 49.5837 28.5143 49.5993C28.4985 49.6149 28.4793 49.6267 28.4583 49.6338C28.4372 49.6408 28.4148 49.643 28.3928 49.64L15.664 51.1016H15.6472Z" fill="#17A07A"/>
<path opacity="0.2" d="M97.1804 49.3321C97.1605 49.3324 97.1408 49.3286 97.1225 49.3209C97.1041 49.3132 97.0876 49.3017 97.074 49.2873C97.0602 49.2735 97.0492 49.2571 97.0418 49.2391C97.0343 49.2211 97.0305 49.2018 97.0305 49.1823C97.0305 49.1628 97.0343 49.1434 97.0418 49.1254C97.0492 49.1074 97.0602 49.091 97.074 49.0773C99.7648 46.4369 101.201 40.2713 101.201 36.8357C101.201 36.8163 101.204 36.7971 101.211 36.7791C101.219 36.7611 101.229 36.7447 101.243 36.7309C101.256 36.7171 101.273 36.7061 101.29 36.6986C101.308 36.6911 101.327 36.6873 101.347 36.6873C101.386 36.6873 101.424 36.7029 101.452 36.7307C101.48 36.7586 101.495 36.7963 101.495 36.8357C101.495 40.3245 100.031 46.5937 97.2812 49.2901C97.2538 49.3159 97.218 49.3308 97.1804 49.3321Z" fill="#17A07A"/>
<path d="M75.4888 41.2792H79.3276C79.4707 41.2784 79.6077 41.2213 79.7089 41.1201C79.8101 41.0189 79.8673 40.8819 79.868 40.7388C79.8673 40.5957 79.8101 40.4586 79.7089 40.3575C79.6077 40.2563 79.4707 40.1991 79.3276 40.1984H75.4888C75.3457 40.1991 75.2087 40.2563 75.1075 40.3575C75.0063 40.4586 74.9492 40.5957 74.9484 40.7388C74.9492 40.8819 75.0063 41.0189 75.1075 41.1201C75.2087 41.2213 75.3457 41.2784 75.4888 41.2792Z" fill="#17A07A"/>
<path d="M92.3308 41.2792H96.1668C96.3104 41.2792 96.4481 41.2223 96.5499 41.1211C96.6517 41.0198 96.7093 40.8823 96.71 40.7388C96.7093 40.5952 96.6517 40.4577 96.5499 40.3565C96.4481 40.2552 96.3104 40.1984 96.1668 40.1984H92.3308C92.1877 40.1991 92.0507 40.2563 91.9495 40.3575C91.8483 40.4586 91.7911 40.5957 91.7904 40.7388C91.7911 40.8819 91.8483 41.0189 91.9495 41.1201C92.0507 41.2213 92.1877 41.2784 92.3308 41.2792Z" fill="#17A07A"/>
<path d="M7.66718 49.5476C6.87758 49.066 5.58118 48.3044 4.11398 47.5232C3.31122 48.3718 2.66812 49.3583 2.21558 50.4352C2.79609 50.5693 3.33701 50.8378 3.79478 51.2192C5.66518 52.6584 10.68 51.3844 7.66718 49.5476Z" fill="#17A07A"/>
<path d="M56.5328 38.3336H95.6432C97.6426 38.334 99.6082 37.818 101.35 36.8356C101.35 36.8356 95.0216 31.0844 82.2788 28.6064C77.0428 27.5872 72.0784 27.1924 70.5524 27.2904C66.9124 29.2 61.3376 33.2432 56.5328 38.3336Z" fill="#17A07A"/>
<path d="M33.08 62.3855H5.26481C5.11508 62.386 4.9684 62.3432 4.84248 62.2622C4.71656 62.1812 4.61678 62.0654 4.5552 61.9289C4.49362 61.7924 4.47286 61.641 4.49544 61.493C4.51801 61.345 4.58295 61.2067 4.68241 61.0947L5.40201 60.2827C5.4753 60.2008 5.56506 60.1353 5.66542 60.0904C5.76578 60.0455 5.87448 60.0223 5.98442 60.0223H32.3548C32.4643 60.0224 32.5726 60.0456 32.6725 60.0905C32.7724 60.1353 32.8617 60.2009 32.9344 60.2827L33.654 61.0947C33.753 61.2061 33.8178 61.3437 33.8407 61.4909C33.8636 61.6382 33.8435 61.7889 33.783 61.9251C33.7224 62.0613 33.6239 62.1771 33.4992 62.2588C33.3746 62.3404 33.229 62.3844 33.08 62.3855Z" fill="#17A07A"/>
<path d="M106.02 49.4496L104.27 49.7855V45.0396L106.02 45.3755C106.258 45.4231 106.437 45.7423 106.437 46.1231V48.7019C106.44 49.0799 106.258 49.402 106.02 49.4496Z" fill="#17A07A"/>
<path d="M76.5052 73.006C75.1052 73.006 74.3464 72.6588 74.3464 72.0316C74.3464 71.4968 74.9428 71.102 76.172 70.8276C77.8222 70.5191 79.4999 70.3821 81.1784 70.4188H103.64C105.006 70.4188 106.031 70.0211 106.779 69.2007C108.803 66.9859 108.35 61.9964 108.019 58.3564C107.907 57.1188 107.801 55.9484 107.801 55.0384C107.82 53.8257 107.933 52.6163 108.137 51.4207C108.347 50.0067 108.512 48.9008 108.061 48.366C107.764 48.0216 107.146 47.8564 106.166 47.8564V46.9688C107.437 46.9688 108.252 47.2292 108.73 47.7864C109.45 48.6264 109.257 49.9144 109.01 51.5496C108.811 52.7023 108.701 53.8687 108.68 55.0384C108.68 55.9092 108.784 57.0572 108.896 58.2752C109.26 62.2932 109.713 67.294 107.428 69.8C106.516 70.7968 105.239 71.3036 103.634 71.3036H81.1784C77.5524 71.3036 75.9396 71.7292 75.4048 71.9952C75.7637 72.0893 76.1342 72.1317 76.5052 72.1212V73.006Z" fill="#17A07A"/>
<path d="M106.16 45.874V48.954C106.568 48.954 106.96 48.7918 107.249 48.503C107.538 48.2142 107.7 47.8225 107.7 47.414C107.7 47.0056 107.538 46.6139 107.249 46.3251C106.96 46.0363 106.568 45.874 106.16 45.874Z" fill="#17A07A"/>
<path d="M92.944 1.44922H81.1784V72.18H92.944V1.44922Z" fill="#263238"/>
<path d="M96.1752 0.578369H82.1864V1.44917H96.1752V0.578369Z" fill="#263238"/>
<path opacity="0.4" d="M96.1752 0.578369H92.9468V1.44917H96.1752V0.578369Z" fill="black"/>
<path d="M89.0016 7.71557H87.022L88.7524 4.97717H86.5768L85.1236 8.84957H86.9296L85.8292 12.3468L89.0016 7.71557Z" fill="white"/>
<path opacity="0.5" d="M88.8107 47.8899C89.7763 46.9243 89.7763 45.3589 88.8107 44.3934C87.8452 43.4278 86.2798 43.4278 85.3142 44.3934C84.3487 45.3589 84.3487 46.9243 85.3142 47.8899C86.2798 48.8554 87.8452 48.8554 88.8107 47.8899Z" fill="#17A07A"/>
<path d="M76.5052 73.0059C76.3879 73.0059 76.2753 72.9593 76.1924 72.8764C76.1094 72.7934 76.0628 72.6809 76.0628 72.5635C76.0628 72.4462 76.1094 72.3337 76.1924 72.2507C76.2753 72.1678 76.3879 72.1211 76.5052 72.1211C77.9304 72.1211 78.9132 71.7683 79.5124 71.0431C80.89 69.3771 80.204 65.7931 79.4788 61.9963C78.9972 59.4763 78.4988 56.8695 78.4988 54.4363C78.4988 48.7971 81.5396 45.6891 87.0612 45.6891C87.1224 45.6843 87.184 45.6921 87.2421 45.7122C87.3001 45.7323 87.3534 45.7642 87.3986 45.8059C87.4437 45.8476 87.4797 45.8982 87.5043 45.9544C87.529 46.0107 87.5417 46.0715 87.5417 46.1329C87.5417 46.1944 87.529 46.2552 87.5043 46.3114C87.4797 46.3677 87.4437 46.4183 87.3986 46.46C87.3534 46.5017 87.3001 46.5336 87.2421 46.5537C87.184 46.5737 87.1224 46.5816 87.0612 46.5767C83.5584 46.5767 79.3836 47.9403 79.3836 54.4363C79.3836 56.7743 79.8736 59.3391 80.3468 61.8199C81.114 65.8267 81.8364 69.6095 80.1956 71.5947C79.4172 72.5467 78.2104 73.0059 76.5052 73.0059Z" fill="#17A07A"/>
<path opacity="0.5" d="M91.4796 23.8828H82.6484V41.73H91.4796V23.8828Z" fill="#17A07A"/>
<path opacity="0.5" d="M82.6456 23.8828V41.73L85.8096 26.3664L82.6456 23.8828Z" fill="#17A07A"/>
<path d="M89.8024 29.9L89.9816 29.0292H87.5708L87.3916 29.9H86.4592L84.7512 38.1936H89.0492L90.7572 29.9H89.8024Z" fill="#17A07A"/>
<path opacity="0.4" d="M89.5784 32.8399L88.6992 37.1127C88.6694 37.2592 88.5898 37.3909 88.4739 37.4853C88.3581 37.5797 88.2131 37.6311 88.0636 37.6307H85.9188C85.8605 37.6312 85.8029 37.6185 85.7502 37.5937C85.6975 37.569 85.651 37.5326 85.6142 37.4875C85.5774 37.4423 85.5512 37.3895 85.5375 37.3329C85.5238 37.2763 85.523 37.2173 85.5352 37.1603L86.4144 32.8875C86.4441 32.741 86.5237 32.6094 86.6396 32.5149C86.7555 32.4205 86.9005 32.3691 87.05 32.3695H89.1948C89.253 32.3691 89.3106 32.3817 89.3634 32.4065C89.4161 32.4313 89.4626 32.4676 89.4994 32.5127C89.5362 32.5579 89.5624 32.6107 89.5761 32.6673C89.5897 32.724 89.5905 32.7829 89.5784 32.8399Z" fill="white"/>
<path opacity="0.4" d="M82.6456 23.8828L91.4768 23.88V26.3664H85.8096L82.6456 23.8828Z" fill="#263238"/>
<path d="M92.944 72.1799H97.1776L97.1776 1.44913H92.944L92.944 72.1799Z" fill="#263238"/>
<path opacity="0.4" d="M92.944 72.1799H97.1776L97.1776 1.44913H92.944L92.944 72.1799Z" fill="black"/>
</svg>
