<svg width="77" height="78" viewBox="0 0 77 78" fill="none" xmlns="http://www.w3.org/2000/svg">
<path d="M39.0624 74.0416C29.5002 73.8801 20.389 69.9475 13.7127 63.1C7.03644 56.2525 3.33574 47.0447 3.41645 37.4815C3.49717 27.9183 7.35275 18.7743 14.1437 12.0404C20.9346 5.30659 30.1108 1.52832 39.6744 1.52832C49.2379 1.52832 58.4142 5.30659 65.2051 12.0404C71.996 18.7743 75.8516 27.9183 75.9323 37.4815C76.013 47.0447 72.3123 56.2525 65.636 63.1C58.9597 69.9475 49.8485 73.8801 40.2864 74.0416C39.8784 74.032 39.48 74.0416 39.0624 74.0416ZM39.0912 6.27995C38.736 6.27995 38.3808 6.27995 38.0256 6.27995C29.7526 6.52915 21.9104 10.0256 16.1958 16.0128C10.4811 22 7.35359 29.9965 7.48987 38.2721C7.62615 46.5477 11.0153 54.4369 16.9239 60.2327C22.8326 66.0285 30.7857 69.2649 39.0624 69.2416C39.4176 69.2416 39.768 69.2416 40.128 69.2416C48.4009 68.9924 56.2431 65.4959 61.9578 59.5087C67.6724 53.5215 70.7999 45.525 70.6637 37.2494C70.5274 28.9738 67.1383 21.0846 61.2296 15.2888C55.3209 9.49299 47.3678 6.25662 39.0912 6.27995Z" fill="#17A07A"/>
<path opacity="0.1" d="M39.0624 74.0416C29.5002 73.8801 20.389 69.9475 13.7127 63.1C7.03644 56.2525 3.33574 47.0447 3.41645 37.4815C3.49717 27.9183 7.35275 18.7743 14.1437 12.0404C20.9346 5.30659 30.1108 1.52832 39.6744 1.52832C49.2379 1.52832 58.4142 5.30659 65.2051 12.0404C71.996 18.7743 75.8516 27.9183 75.9323 37.4815C76.013 47.0447 72.3123 56.2525 65.636 63.1C58.9597 69.9475 49.8485 73.8801 40.2864 74.0416C39.8784 74.032 39.48 74.0416 39.0624 74.0416ZM39.0912 6.27995C38.736 6.27995 38.3808 6.27995 38.0256 6.27995C29.7526 6.52915 21.9104 10.0256 16.1958 16.0128C10.4811 22 7.35359 29.9965 7.48987 38.2721C7.62615 46.5477 11.0153 54.4369 16.9239 60.2327C22.8326 66.0285 30.7857 69.2649 39.0624 69.2416C39.4176 69.2416 39.768 69.2416 40.128 69.2416C48.4009 68.9924 56.2431 65.4959 61.9578 59.5087C67.6724 53.5215 70.7999 45.525 70.6637 37.2494C70.5274 28.9738 67.1383 21.0846 61.2296 15.2888C55.3209 9.49299 47.3678 6.25662 39.0912 6.27995Z" fill="white"/>
<path d="M20.2351 61.8406C21.8326 57.2992 19.4461 52.3227 14.9048 50.7252C10.3634 49.1277 5.38685 51.5142 3.78936 56.0555C2.19187 60.5969 4.57836 65.5735 9.11974 67.171C13.6611 68.7684 18.6377 66.3819 20.2351 61.8406Z" fill="#263238"/>
<path opacity="0.7" d="M20.2351 61.8406C21.8326 57.2992 19.4461 52.3227 14.9048 50.7252C10.3634 49.1277 5.38685 51.5142 3.78936 56.0555C2.19187 60.5969 4.57836 65.5735 9.11974 67.171C13.6611 68.7684 18.6377 66.3819 20.2351 61.8406Z" fill="white"/>
<path d="M16.0512 57.6592L12.288 57.664L13.2192 53.2672L7.97284 60.2416L11.7408 60.2368L10.8048 64.6336L16.0512 57.6592Z" fill="#17A07A"/>
<path d="M54.2064 61.9937L46.3968 69.7984L48.9456 72.3425L56.76 64.5376L54.2064 61.9937ZM50.52 69.4864C50.04 69.9664 49.3344 70.1153 48.9936 69.7697C48.6528 69.4241 48.7728 68.7424 49.2768 68.2432C49.7808 67.744 50.4576 67.6192 50.8032 67.96C51.1488 68.3008 51 68.9872 50.52 69.4864Z" fill="#263238"/>
<path d="M59.76 67.5472L51.96 75.352L54.504 77.9008L62.3088 70.0912L59.76 67.5472ZM56.0544 75.04C55.5744 75.544 54.8688 75.6688 54.528 75.3232C54.1872 74.9776 54.312 74.296 54.8112 73.7968C55.3104 73.2976 55.992 73.1728 56.3376 73.5136C56.6832 73.8544 56.5536 74.5408 56.0544 75.04Z" fill="#263238"/>
<g opacity="0.7">
<path d="M54.2064 61.9937L46.3968 69.7984L48.9456 72.3425L56.76 64.5376L54.2064 61.9937ZM50.52 69.4864C50.04 69.9664 49.3344 70.1153 48.9936 69.7697C48.6528 69.4241 48.7728 68.7424 49.2768 68.2432C49.7808 67.744 50.4576 67.6192 50.8032 67.96C51.1488 68.3008 51 68.9872 50.52 69.4864Z" fill="white"/>
<path d="M59.76 67.5472L51.96 75.352L54.504 77.9008L62.3088 70.0912L59.76 67.5472ZM56.0544 75.04C55.5744 75.544 54.8688 75.6688 54.528 75.3232C54.1872 74.9776 54.312 74.296 54.8112 73.7968C55.3104 73.2976 55.992 73.1728 56.3376 73.5136C56.6832 73.8544 56.5536 74.5408 56.0544 75.04Z" fill="white"/>
</g>
<path d="M66.912 67.9361C69.8256 65.0273 68.4672 61.6577 65.5536 58.7441C62.64 55.8305 59.2752 54.4721 56.3616 57.3857L51.9264 61.8209L62.4864 72.3809L66.912 67.9361Z" fill="#263238"/>
<path d="M67.667 55.6566L68.6275 56.6172C68.9651 56.9547 69.1548 57.4126 69.1548 57.89C69.1548 58.3674 68.9651 58.8252 68.6275 59.1627L64.8092 62.9811L61.3098 59.4818L65.1248 55.6668C65.4624 55.3292 65.9202 55.1396 66.3976 55.1396C66.875 55.1396 67.3328 55.3292 67.6704 55.6668L67.667 55.6566Z" fill="#263238"/>
<path opacity="0.3" d="M61.5936 67.0049L57.2736 62.6849C57.1701 62.579 57.1121 62.4369 57.1121 62.2889C57.1121 62.1409 57.1701 61.9987 57.2736 61.8929C57.3794 61.7894 57.5215 61.7314 57.6696 61.7314C57.8176 61.7314 57.9597 61.7894 58.0656 61.8929L62.3856 66.2129C62.4891 66.3187 62.547 66.4609 62.547 66.6089C62.547 66.7569 62.4891 66.899 62.3856 67.0049C62.2797 67.1084 62.1376 67.1663 61.9896 67.1663C61.8415 67.1663 61.6994 67.1084 61.5936 67.0049Z" fill="white"/>
<path opacity="0.3" d="M62.7216 64.1776L60.12 61.576C60.0165 61.4702 59.9586 61.3281 59.9586 61.18C59.9586 61.032 60.0165 60.8899 60.12 60.784C60.1718 60.7316 60.2334 60.69 60.3014 60.6617C60.3694 60.6333 60.4423 60.6187 60.516 60.6187C60.5897 60.6187 60.6626 60.6333 60.7306 60.6617C60.7985 60.69 60.8602 60.7316 60.912 60.784L63.5136 63.3856C63.566 63.4374 63.6076 63.4991 63.636 63.5671C63.6644 63.635 63.679 63.708 63.679 63.7816C63.679 63.8553 63.6644 63.9282 63.636 63.9962C63.6076 64.0642 63.566 64.1258 63.5136 64.1776C63.4078 64.2811 63.2656 64.3391 63.1176 64.3391C62.9696 64.3391 62.8274 64.2811 62.7216 64.1776Z" fill="white"/>
<path d="M61.3344 73.3072L51 62.9632C50.8629 62.8271 50.754 62.6652 50.6797 62.4869C50.6054 62.3085 50.5672 62.1172 50.5672 61.924C50.5672 61.7308 50.6054 61.5395 50.6797 61.3612C50.754 61.1828 50.8629 61.0209 51 60.8848C51.1361 60.7477 51.298 60.6388 51.4763 60.5645C51.6547 60.4903 51.846 60.452 52.0392 60.452C52.2324 60.452 52.4237 60.4903 52.6021 60.5645C52.7804 60.6388 52.9423 60.7477 53.0784 60.8848L63.4224 71.2288C63.5596 71.3649 63.6684 71.5268 63.7427 71.7052C63.817 71.8835 63.8552 72.0748 63.8552 72.268C63.8552 72.4612 63.817 72.6525 63.7427 72.8309C63.6684 73.0093 63.5596 73.1711 63.4224 73.3072C63.2862 73.4458 63.1237 73.5559 62.9444 73.6311C62.7652 73.7062 62.5728 73.7449 62.3784 73.7449C62.184 73.7449 61.9916 73.7062 61.8124 73.6311C61.6332 73.5559 61.4707 73.4458 61.3344 73.3072Z" fill="#263238"/>
<path d="M76.0512 26.8529C76.0512 28.6383 75.342 30.3506 74.0795 31.6131C72.817 32.8756 71.1047 33.5849 69.3192 33.5849C67.5338 33.5849 65.8215 32.8756 64.559 31.6131C63.2965 30.3506 62.5872 28.6383 62.5872 26.8529C62.5872 23.1329 69.3072 10.2017 69.3072 10.2017C69.3072 10.2017 76.0512 23.1329 76.0512 26.8529Z" fill="#263238"/>
<path opacity="0.8" d="M74.04 26.608C74.5728 27.1408 74.04 28.528 72.8544 29.7184C71.6688 30.9088 70.272 31.4368 69.7392 30.9088C69.2064 30.3808 70.4208 29.6608 71.6064 28.4752C72.792 27.2896 73.5072 26.0752 74.04 26.608Z" fill="white"/>
<path opacity="0.8" d="M73.7184 25.24C74.1161 25.24 74.4384 24.9177 74.4384 24.52C74.4384 24.1224 74.1161 23.8 73.7184 23.8C73.3208 23.8 72.9984 24.1224 72.9984 24.52C72.9984 24.9177 73.3208 25.24 73.7184 25.24Z" fill="white"/>
<path d="M28.2768 6.30409L28.0032 3.42409L38.0496 2.46409C40.9951 2.18112 43.9671 2.39202 46.8432 3.08809L54.36 4.91209L53.6832 7.72009L46.1664 5.91049C43.6009 5.29156 40.9504 5.10339 38.3232 5.35369L28.2768 6.30409Z" fill="#263238"/>
<path d="M28.2768 6.30409L28.0032 3.42409L38.0496 2.46409C40.9951 2.18112 43.9671 2.39202 46.8432 3.08809L54.36 4.91209L53.6832 7.72009L46.1664 5.91049C43.6009 5.29156 40.9504 5.10339 38.3232 5.35369L28.2768 6.30409Z" fill="#263238"/>
<g opacity="0.4">
<path d="M28.2768 6.30409L28.0032 3.42409L38.0496 2.46409C40.9951 2.18112 43.9671 2.39202 46.8432 3.08809L54.36 4.91209L53.6832 7.72009L46.1664 5.91049C43.6009 5.29156 40.9504 5.10339 38.3232 5.35369L28.2768 6.30409Z" fill="white"/>
</g>
<path d="M32.5957 2.02975L27.9129 2.47571L28.368 7.25409L33.0508 6.80813L32.5957 2.02975Z" fill="#263238"/>
<g opacity="0.6">
<path d="M32.5957 2.02975L27.9129 2.47571L28.368 7.25409L33.0508 6.80813L32.5957 2.02975Z" fill="white"/>
</g>
<path d="M12.768 25.2113L16.4688 16.1969C16.6651 15.7355 17.0342 15.3693 17.497 15.1764C17.9598 14.9836 18.4797 14.9794 18.9456 15.1649L23.2944 16.9505L24.5856 15.6641L19.584 13.6097C18.7062 13.2494 17.7212 13.2523 16.8455 13.6177C15.9698 13.9831 15.275 14.6811 14.9136 15.5585L11.376 24.1985L12.768 25.2113Z" fill="#263238"/>
<path d="M30.36 6.72645L29.4768 3.51525C29.2556 2.71482 28.8306 1.98546 28.2432 1.39845C27.519 0.676609 26.5831 0.204908 25.5721 0.0520856C24.561 -0.100737 23.5276 0.0733042 22.6224 0.548847L15.4464 4.36005C15.2623 4.45746 15.1037 4.59675 14.9833 4.76669C14.863 4.93663 14.7842 5.13247 14.7534 5.33844C14.7225 5.5444 14.7405 5.75472 14.8059 5.95246C14.8712 6.1502 14.9821 6.32982 15.1296 6.47685L4.43999 17.1328C4.28151 17.2899 4.15572 17.4769 4.06987 17.6828C3.98402 17.8888 3.93982 18.1097 3.93982 18.3328C3.93982 18.556 3.98402 18.7769 4.06987 18.9829C4.15572 19.1888 4.28151 19.3758 4.43999 19.5328L11.8848 26.9776C12.0419 27.1361 12.2288 27.2619 12.4348 27.3478C12.6407 27.4336 12.8616 27.4778 13.0848 27.4778C13.3079 27.4778 13.5289 27.4336 13.7348 27.3478C13.9408 27.2619 14.1277 27.1361 14.2848 26.9776L28.7232 12.52C29.2422 12.0039 29.6348 11.3747 29.8704 10.6816L30.264 9.52485C30.5734 8.62232 30.6068 7.64806 30.36 6.72645ZM12.4272 23.9344L8.58719 20.0944C8.44235 19.9504 8.32742 19.7791 8.24899 19.5905C8.17056 19.4018 8.13018 19.1995 8.13018 18.9953C8.13018 18.791 8.17056 18.5887 8.24899 18.4C8.32742 18.2114 8.44235 18.0401 8.58719 17.896L16.2144 10.2688C16.3931 10.0867 16.6064 9.94202 16.8417 9.84325C17.077 9.74449 17.3296 9.69362 17.5848 9.69362C17.84 9.69362 18.0926 9.74449 18.3279 9.84325C18.5632 9.94202 18.7765 10.0867 18.9552 10.2688L22.2384 13.552C22.4205 13.7308 22.5652 13.944 22.664 14.1793C22.7627 14.4146 22.8136 14.6673 22.8136 14.9225C22.8136 15.1776 22.7627 15.4303 22.664 15.6656C22.5652 15.9009 22.4205 16.1141 22.2384 16.2928L14.616 23.9344C14.4719 24.0793 14.3006 24.1942 14.112 24.2727C13.9234 24.3511 13.7211 24.3915 13.5168 24.3915C13.3125 24.3915 13.1102 24.3511 12.9216 24.2727C12.7329 24.1942 12.5617 24.0793 12.4176 23.9344H12.4272Z" fill="#17A07A"/>
<path d="M26.7792 35.7472L25.4256 42.5104H23.8608L24.4128 39.7552H21.3504L20.7984 42.5104H19.224L20.5776 35.7472H22.152L21.6192 38.4064H24.6816L25.2144 35.7472H26.7792Z" fill="#17A07A"/>
<path d="M30.7392 40.1632L30.2592 42.5104H28.6944L29.1744 40.1104L27.4368 35.7616H29.0016L30.2112 38.776L32.6112 35.7616H34.224L30.7392 40.1632Z" fill="#17A07A"/>
<path d="M39.8448 39.5392C40.0089 39.7863 40.0927 40.078 40.0848 40.3745C40.0996 40.6898 40.0305 41.0034 39.8847 41.2833C39.7388 41.5633 39.5213 41.7995 39.2544 41.9681C38.5846 42.3586 37.8161 42.547 37.0416 42.5104H33.4944L34.848 35.7473H38.112C38.6989 35.7123 39.2832 35.8508 39.792 36.1457C39.981 36.2697 40.1347 36.4405 40.2382 36.6416C40.3416 36.8426 40.3913 37.0669 40.3824 37.2929C40.3939 37.6706 40.2809 38.0416 40.0608 38.3488C39.8343 38.6523 39.5264 38.8854 39.1728 39.0209C39.4438 39.1222 39.6779 39.3029 39.8448 39.5392ZM38.16 41.0801C38.2764 41.0007 38.3707 40.8929 38.4337 40.7669C38.4967 40.6409 38.5264 40.5008 38.52 40.3601C38.52 39.8801 38.1792 39.6641 37.5024 39.6641H35.64L35.3088 41.3345H37.1568C37.5089 41.3503 37.8579 41.2618 38.16 41.0801ZM36.1584 36.9281L35.8416 38.5217H37.4352C37.7736 38.543 38.11 38.4556 38.3952 38.272C38.5082 38.1926 38.5992 38.0857 38.6597 37.9615C38.7201 37.8372 38.748 37.6996 38.7408 37.5617C38.7408 37.1393 38.4096 36.9281 37.7472 36.9281H36.1584Z" fill="#17A07A"/>
<path d="M47.1264 39.4673C46.7631 39.9349 46.2577 40.2718 45.6864 40.4273L46.8672 42.5153H45.24L44.1744 40.6241H42.84L42.4656 42.5153H40.8912L42.2448 35.7521H44.9952C45.6902 35.7086 46.3793 35.9033 46.9488 36.3041C47.1794 36.4877 47.3628 36.7238 47.4839 36.9926C47.6049 37.2614 47.6601 37.5553 47.6448 37.8497C47.6564 38.4315 47.474 39.0006 47.1264 39.4673ZM45.624 39.0113C45.77 38.8857 45.8849 38.7281 45.9599 38.5507C46.0348 38.3734 46.0677 38.1811 46.056 37.9889C46.0655 37.85 46.0402 37.711 45.9824 37.5844C45.9245 37.4578 45.836 37.3477 45.7248 37.2641C45.4469 37.0851 45.1185 37.001 44.7888 37.0241H43.5504L43.0704 39.3713H44.4048C44.8411 39.4001 45.2733 39.2724 45.624 39.0113Z" fill="#17A07A"/>
<path d="M49.3392 35.7472H50.9136L49.56 42.5104H47.9856L49.3392 35.7472Z" fill="#17A07A"/>
<path d="M52.5072 35.7473H55.32C55.9326 35.7329 56.5413 35.8491 57.1056 36.0881C57.5771 36.2951 57.9764 36.6376 58.2527 37.0721C58.529 37.5218 58.6691 38.042 58.656 38.5697C58.671 39.295 58.4867 40.0106 58.1232 40.6385C57.7733 41.2334 57.258 41.7137 56.64 42.0209C55.9563 42.3551 55.2023 42.5198 54.4416 42.5009H51.1392L52.5072 35.7473ZM54.5088 41.2241C54.989 41.2361 55.464 41.1219 55.8864 40.8929C56.2594 40.6774 56.5627 40.3591 56.76 39.9761C56.9693 39.568 57.0749 39.1146 57.0672 38.6561C57.0801 38.4338 57.0438 38.2114 56.9608 38.0048C56.8778 37.7982 56.7502 37.6125 56.5872 37.4609C56.1745 37.1492 55.663 36.9975 55.1472 37.0337H53.8032L52.9632 41.2241H54.5088Z" fill="#17A07A"/>
<path d="M59.0736 45.064H13.2048L15.5136 33.1888H65.6496L64.1712 40.8064C63.912 41.9799 63.271 43.0344 62.3486 43.8048C61.4262 44.5752 60.2745 45.018 59.0736 45.064ZM14.184 44.2624H59.0736C60.0918 44.2244 61.0686 43.8493 61.8505 43.196C62.6324 42.5426 63.1752 41.6481 63.3936 40.6528L64.6896 33.9952H16.2096L14.184 44.2624Z" fill="#17A07A"/>
</svg>
